M48
; DRILL file {KiCad (5.1.9)-1} date 07/09/21 15:31:48
; FORMAT={-:-/ absolute / metric / decimal}
; #@! TF.CreationDate,2021-07-09T15:31:48+02:00
; #@! TF.GenerationSoftware,Kicad,Pcbnew,(5.1.9)-1
; #@! TF.FileFunction,NonPlated,1,2,NPTH
FMAT,2
METRIC
T1C0.650
T2C1.750
T3C3.048
T4C3.988
%
G90
G05
T1
X144.735Y-35.772
X150.515Y-35.772
T2
X94.932Y-43.656
X94.932Y-62.706
X97.314Y-81.756
X99.695Y-119.856
X102.076Y-100.806
X105.093Y-43.656
X105.093Y-62.706
X107.474Y-81.756
X109.855Y-119.856
X112.236Y-100.806
X113.983Y-43.656
X113.983Y-62.706
X118.745Y-81.756
X124.142Y-43.656
X124.142Y-62.706
X128.27Y-100.806
X128.27Y-119.856
X128.905Y-81.756
X133.032Y-43.656
X133.032Y-62.706
X137.795Y-81.756
X138.43Y-100.806
X138.43Y-119.856
X143.192Y-43.656
X143.192Y-62.706
X147.32Y-100.806
X147.955Y-81.756
X152.082Y-43.656
X152.082Y-62.706
X156.845Y-81.756
X156.845Y-119.856
X157.48Y-100.806
X162.243Y-43.656
X162.243Y-62.706
X166.37Y-100.806
X167.005Y-81.756
X167.005Y-119.856
X171.132Y-43.656
X171.132Y-62.706
X175.895Y-81.756
X176.53Y-100.806
X181.292Y-43.656
X181.292Y-62.706
X185.42Y-100.806
X186.055Y-81.756
X190.183Y-43.656
X190.183Y-62.706
X194.945Y-81.756
X195.58Y-100.806
X200.343Y-43.656
X200.343Y-62.706
X205.105Y-81.756
X206.116Y-123.103
X213.899Y-116.572
T3
X205.376Y-132.841
X223.618Y-117.535
T4
X100.012Y-43.656
X100.012Y-62.706
X102.394Y-81.756
X104.775Y-119.856
X107.156Y-100.806
X119.062Y-43.656
X119.062Y-62.706
X123.825Y-81.756
X133.35Y-100.806
X133.35Y-119.856
X138.112Y-43.656
X138.112Y-62.706
X142.875Y-81.756
X152.4Y-100.806
X157.162Y-43.656
X157.162Y-62.706
X161.925Y-81.756
X161.925Y-119.856
X171.45Y-100.806
X176.213Y-43.656
X176.213Y-62.706
X180.975Y-81.756
X190.5Y-100.806
X195.262Y-43.656
X195.262Y-62.706
X195.58Y-121.167
X200.025Y-81.756
X210.007Y-119.837
X213.822Y-105.86
T0
M30
