%TF.GenerationSoftware,KiCad,Pcbnew,(5.1.9)-1*%
%TF.CreationDate,2021-07-09T15:31:47+02:00*%
%TF.ProjectId,GameHand,47616d65-4861-46e6-942e-6b696361645f,rev?*%
%TF.SameCoordinates,Original*%
%TF.FileFunction,Soldermask,Top*%
%TF.FilePolarity,Negative*%
%FSLAX46Y46*%
G04 Gerber Fmt 4.6, Leading zero omitted, Abs format (unit mm)*
G04 Created by KiCad (PCBNEW (5.1.9)-1) date 2021-07-09 15:31:47*
%MOMM*%
%LPD*%
G01*
G04 APERTURE LIST*
%ADD10C,3.987800*%
%ADD11C,1.750000*%
%ADD12O,1.000000X2.100000*%
%ADD13C,0.650000*%
%ADD14O,1.000000X1.600000*%
%ADD15C,3.048000*%
G04 APERTURE END LIST*
D10*
%TO.C,MX43*%
X171450000Y-100806250D03*
D11*
X166370000Y-100806250D03*
X176530000Y-100806250D03*
%TD*%
D12*
%TO.C,J1*%
X151944800Y-36302400D03*
X143304800Y-36302400D03*
D13*
X144734800Y-35772400D03*
D14*
X143304800Y-32122400D03*
D13*
X150514800Y-35772400D03*
D14*
X151944800Y-32122400D03*
%TD*%
D10*
%TO.C,MX55*%
X161925000Y-119856250D03*
D11*
X156845000Y-119856250D03*
X167005000Y-119856250D03*
%TD*%
D10*
%TO.C,MX54*%
X133350000Y-119856250D03*
D11*
X128270000Y-119856250D03*
X138430000Y-119856250D03*
%TD*%
D10*
%TO.C,MX53*%
X104775000Y-119856250D03*
D11*
X99695000Y-119856250D03*
X109855000Y-119856250D03*
%TD*%
D10*
%TO.C,MX40*%
X107156250Y-100806250D03*
D11*
X102076250Y-100806250D03*
X112236250Y-100806250D03*
%TD*%
D10*
%TO.C,MX27*%
X102393750Y-81756250D03*
D11*
X97313750Y-81756250D03*
X107473750Y-81756250D03*
%TD*%
D10*
%TO.C,MX14*%
X100012500Y-62706250D03*
D11*
X94932500Y-62706250D03*
X105092500Y-62706250D03*
%TD*%
D10*
%TO.C,MX58*%
X210007200Y-119837200D03*
D11*
X206115694Y-123102561D03*
X213898706Y-116571839D03*
D15*
X205376355Y-132841210D03*
X223617788Y-117534830D03*
D10*
X195580272Y-121166693D03*
X213821705Y-105860313D03*
%TD*%
%TO.C,MX44*%
X190500000Y-100806250D03*
D11*
X185420000Y-100806250D03*
X195580000Y-100806250D03*
%TD*%
D10*
%TO.C,MX42*%
X152400000Y-100806250D03*
D11*
X147320000Y-100806250D03*
X157480000Y-100806250D03*
%TD*%
D10*
%TO.C,MX41*%
X133350000Y-100806250D03*
D11*
X128270000Y-100806250D03*
X138430000Y-100806250D03*
%TD*%
D10*
%TO.C,MX32*%
X200025000Y-81756250D03*
D11*
X194945000Y-81756250D03*
X205105000Y-81756250D03*
%TD*%
D10*
%TO.C,MX31*%
X180975000Y-81756250D03*
D11*
X175895000Y-81756250D03*
X186055000Y-81756250D03*
%TD*%
D10*
%TO.C,MX30*%
X161925000Y-81756250D03*
D11*
X156845000Y-81756250D03*
X167005000Y-81756250D03*
%TD*%
D10*
%TO.C,MX29*%
X142875000Y-81756250D03*
D11*
X137795000Y-81756250D03*
X147955000Y-81756250D03*
%TD*%
D10*
%TO.C,MX28*%
X123825000Y-81756250D03*
D11*
X118745000Y-81756250D03*
X128905000Y-81756250D03*
%TD*%
D10*
%TO.C,MX19*%
X195262500Y-62706250D03*
D11*
X190182500Y-62706250D03*
X200342500Y-62706250D03*
%TD*%
D10*
%TO.C,MX18*%
X176212500Y-62706250D03*
D11*
X171132500Y-62706250D03*
X181292500Y-62706250D03*
%TD*%
D10*
%TO.C,MX17*%
X157162500Y-62706250D03*
D11*
X152082500Y-62706250D03*
X162242500Y-62706250D03*
%TD*%
D10*
%TO.C,MX16*%
X138112500Y-62706250D03*
D11*
X133032500Y-62706250D03*
X143192500Y-62706250D03*
%TD*%
D10*
%TO.C,MX15*%
X119062500Y-62706250D03*
D11*
X113982500Y-62706250D03*
X124142500Y-62706250D03*
%TD*%
D10*
%TO.C,MX6*%
X195262500Y-43656250D03*
D11*
X190182500Y-43656250D03*
X200342500Y-43656250D03*
%TD*%
D10*
%TO.C,MX5*%
X176212500Y-43656250D03*
D11*
X171132500Y-43656250D03*
X181292500Y-43656250D03*
%TD*%
D10*
%TO.C,MX4*%
X157162500Y-43656250D03*
D11*
X152082500Y-43656250D03*
X162242500Y-43656250D03*
%TD*%
D10*
%TO.C,MX3*%
X138112500Y-43656250D03*
D11*
X133032500Y-43656250D03*
X143192500Y-43656250D03*
%TD*%
D10*
%TO.C,MX2*%
X119062500Y-43656250D03*
D11*
X113982500Y-43656250D03*
X124142500Y-43656250D03*
%TD*%
D10*
%TO.C,MX1*%
X100012500Y-43656250D03*
D11*
X94932500Y-43656250D03*
X105092500Y-43656250D03*
%TD*%
M02*
