%TF.GenerationSoftware,KiCad,Pcbnew,(5.1.9)-1*%
%TF.CreationDate,2021-07-10T10:23:15+02:00*%
%TF.ProjectId,GameHand,47616d65-4861-46e6-942e-6b696361645f,rev?*%
%TF.SameCoordinates,Original*%
%TF.FileFunction,Soldermask,Bot*%
%TF.FilePolarity,Negative*%
%FSLAX46Y46*%
G04 Gerber Fmt 4.6, Leading zero omitted, Abs format (unit mm)*
G04 Created by KiCad (PCBNEW (5.1.9)-1) date 2021-07-10 10:23:15*
%MOMM*%
%LPD*%
G01*
G04 APERTURE LIST*
%ADD10C,2.250000*%
%ADD11C,3.987800*%
%ADD12C,1.750000*%
%ADD13R,0.600000X1.450000*%
%ADD14R,0.300000X1.450000*%
%ADD15O,1.000000X2.100000*%
%ADD16C,0.650000*%
%ADD17O,1.000000X1.600000*%
%ADD18C,0.100000*%
%ADD19C,3.048000*%
%ADD20R,1.060000X0.650000*%
%ADD21R,1.200000X0.900000*%
G04 APERTURE END LIST*
D10*
%TO.C,MX43*%
X173990000Y-95726250D03*
D11*
X171450000Y-100806250D03*
D10*
X167640000Y-98266250D03*
D12*
X166370000Y-100806250D03*
X176530000Y-100806250D03*
%TD*%
%TO.C,R3*%
G36*
G01*
X174591043Y-121625156D02*
X173954644Y-120988757D01*
G75*
G02*
X173954644Y-120635207I176775J176775D01*
G01*
X174325877Y-120263974D01*
G75*
G02*
X174679427Y-120263974I176775J-176775D01*
G01*
X175315826Y-120900373D01*
G75*
G02*
X175315826Y-121253923I-176775J-176775D01*
G01*
X174944593Y-121625156D01*
G75*
G02*
X174591043Y-121625156I-176775J176775D01*
G01*
G37*
G36*
G01*
X173300573Y-122915626D02*
X172664174Y-122279227D01*
G75*
G02*
X172664174Y-121925677I176775J176775D01*
G01*
X173035407Y-121554444D01*
G75*
G02*
X173388957Y-121554444I176775J-176775D01*
G01*
X174025356Y-122190843D01*
G75*
G02*
X174025356Y-122544393I-176775J-176775D01*
G01*
X173654123Y-122915626D01*
G75*
G02*
X173300573Y-122915626I-176775J176775D01*
G01*
G37*
%TD*%
%TO.C,R6*%
G36*
G01*
X166274800Y-36583198D02*
X166274800Y-37483202D01*
G75*
G02*
X166024802Y-37733200I-249998J0D01*
G01*
X165499798Y-37733200D01*
G75*
G02*
X165249800Y-37483202I0J249998D01*
G01*
X165249800Y-36583198D01*
G75*
G02*
X165499798Y-36333200I249998J0D01*
G01*
X166024802Y-36333200D01*
G75*
G02*
X166274800Y-36583198I0J-249998D01*
G01*
G37*
G36*
G01*
X168099800Y-36583198D02*
X168099800Y-37483202D01*
G75*
G02*
X167849802Y-37733200I-249998J0D01*
G01*
X167324798Y-37733200D01*
G75*
G02*
X167074800Y-37483202I0J249998D01*
G01*
X167074800Y-36583198D01*
G75*
G02*
X167324798Y-36333200I249998J0D01*
G01*
X167849802Y-36333200D01*
G75*
G02*
X168099800Y-36583198I0J-249998D01*
G01*
G37*
%TD*%
%TO.C,R5*%
G36*
G01*
X129000200Y-37407002D02*
X129000200Y-36506998D01*
G75*
G02*
X129250198Y-36257000I249998J0D01*
G01*
X129775202Y-36257000D01*
G75*
G02*
X130025200Y-36506998I0J-249998D01*
G01*
X130025200Y-37407002D01*
G75*
G02*
X129775202Y-37657000I-249998J0D01*
G01*
X129250198Y-37657000D01*
G75*
G02*
X129000200Y-37407002I0J249998D01*
G01*
G37*
G36*
G01*
X127175200Y-37407002D02*
X127175200Y-36506998D01*
G75*
G02*
X127425198Y-36257000I249998J0D01*
G01*
X127950202Y-36257000D01*
G75*
G02*
X128200200Y-36506998I0J-249998D01*
G01*
X128200200Y-37407002D01*
G75*
G02*
X127950202Y-37657000I-249998J0D01*
G01*
X127425198Y-37657000D01*
G75*
G02*
X127175200Y-37407002I0J249998D01*
G01*
G37*
%TD*%
D13*
%TO.C,J1*%
X150874800Y-37217400D03*
X150074800Y-37217400D03*
X145174800Y-37217400D03*
X144374800Y-37217400D03*
X144374800Y-37217400D03*
X145174800Y-37217400D03*
X150074800Y-37217400D03*
X150874800Y-37217400D03*
D14*
X145874800Y-37217400D03*
X146374800Y-37217400D03*
X146874800Y-37217400D03*
X147874800Y-37217400D03*
X148374800Y-37217400D03*
X148874800Y-37217400D03*
X149374800Y-37217400D03*
X147374800Y-37217400D03*
D15*
X151944800Y-36302400D03*
X143304800Y-36302400D03*
D16*
X144734800Y-35772400D03*
D17*
X143304800Y-32122400D03*
D16*
X150514800Y-35772400D03*
D17*
X151944800Y-32122400D03*
%TD*%
D18*
%TO.C,U1*%
G36*
X185639672Y-115381035D02*
G01*
X185250763Y-114992126D01*
X186382134Y-113860755D01*
X186771043Y-114249664D01*
X185639672Y-115381035D01*
G37*
G36*
X185073986Y-114815350D02*
G01*
X184685077Y-114426441D01*
X185816448Y-113295070D01*
X186205357Y-113683979D01*
X185073986Y-114815350D01*
G37*
G36*
X184508301Y-114249664D02*
G01*
X184119392Y-113860755D01*
X185250763Y-112729384D01*
X185639672Y-113118293D01*
X184508301Y-114249664D01*
G37*
G36*
X183942616Y-113683979D02*
G01*
X183553707Y-113295070D01*
X184685078Y-112163699D01*
X185073987Y-112552608D01*
X183942616Y-113683979D01*
G37*
G36*
X183376930Y-113118293D02*
G01*
X182988021Y-112729384D01*
X184119392Y-111598013D01*
X184508301Y-111986922D01*
X183376930Y-113118293D01*
G37*
G36*
X182811245Y-112552608D02*
G01*
X182422336Y-112163699D01*
X183553707Y-111032328D01*
X183942616Y-111421237D01*
X182811245Y-112552608D01*
G37*
G36*
X182245559Y-111986923D02*
G01*
X181856650Y-111598014D01*
X182988021Y-110466643D01*
X183376930Y-110855552D01*
X182245559Y-111986923D01*
G37*
G36*
X181679874Y-111421237D02*
G01*
X181290965Y-111032328D01*
X182422336Y-109900957D01*
X182811245Y-110289866D01*
X181679874Y-111421237D01*
G37*
G36*
X180760635Y-111032328D02*
G01*
X180371726Y-111421237D01*
X179240355Y-110289866D01*
X179629264Y-109900957D01*
X180760635Y-111032328D01*
G37*
G36*
X180194950Y-111598014D02*
G01*
X179806041Y-111986923D01*
X178674670Y-110855552D01*
X179063579Y-110466643D01*
X180194950Y-111598014D01*
G37*
G36*
X179629264Y-112163699D02*
G01*
X179240355Y-112552608D01*
X178108984Y-111421237D01*
X178497893Y-111032328D01*
X179629264Y-112163699D01*
G37*
G36*
X179063579Y-112729384D02*
G01*
X178674670Y-113118293D01*
X177543299Y-111986922D01*
X177932208Y-111598013D01*
X179063579Y-112729384D01*
G37*
G36*
X178497893Y-113295070D02*
G01*
X178108984Y-113683979D01*
X176977613Y-112552608D01*
X177366522Y-112163699D01*
X178497893Y-113295070D01*
G37*
G36*
X177932208Y-113860755D02*
G01*
X177543299Y-114249664D01*
X176411928Y-113118293D01*
X176800837Y-112729384D01*
X177932208Y-113860755D01*
G37*
G36*
X177366523Y-114426441D02*
G01*
X176977614Y-114815350D01*
X175846243Y-113683979D01*
X176235152Y-113295070D01*
X177366523Y-114426441D01*
G37*
G36*
X176800837Y-114992126D02*
G01*
X176411928Y-115381035D01*
X175280557Y-114249664D01*
X175669466Y-113860755D01*
X176800837Y-114992126D01*
G37*
G36*
X175669466Y-117431645D02*
G01*
X175280557Y-117042736D01*
X176411928Y-115911365D01*
X176800837Y-116300274D01*
X175669466Y-117431645D01*
G37*
G36*
X176235152Y-117997330D02*
G01*
X175846243Y-117608421D01*
X176977614Y-116477050D01*
X177366523Y-116865959D01*
X176235152Y-117997330D01*
G37*
G36*
X176800837Y-118563016D02*
G01*
X176411928Y-118174107D01*
X177543299Y-117042736D01*
X177932208Y-117431645D01*
X176800837Y-118563016D01*
G37*
G36*
X177366522Y-119128701D02*
G01*
X176977613Y-118739792D01*
X178108984Y-117608421D01*
X178497893Y-117997330D01*
X177366522Y-119128701D01*
G37*
G36*
X177932208Y-119694387D02*
G01*
X177543299Y-119305478D01*
X178674670Y-118174107D01*
X179063579Y-118563016D01*
X177932208Y-119694387D01*
G37*
G36*
X178497893Y-120260072D02*
G01*
X178108984Y-119871163D01*
X179240355Y-118739792D01*
X179629264Y-119128701D01*
X178497893Y-120260072D01*
G37*
G36*
X179063579Y-120825757D02*
G01*
X178674670Y-120436848D01*
X179806041Y-119305477D01*
X180194950Y-119694386D01*
X179063579Y-120825757D01*
G37*
G36*
X179629264Y-121391443D02*
G01*
X179240355Y-121002534D01*
X180371726Y-119871163D01*
X180760635Y-120260072D01*
X179629264Y-121391443D01*
G37*
G36*
X182811245Y-121002534D02*
G01*
X182422336Y-121391443D01*
X181290965Y-120260072D01*
X181679874Y-119871163D01*
X182811245Y-121002534D01*
G37*
G36*
X183376930Y-120436848D02*
G01*
X182988021Y-120825757D01*
X181856650Y-119694386D01*
X182245559Y-119305477D01*
X183376930Y-120436848D01*
G37*
G36*
X183942616Y-119871163D02*
G01*
X183553707Y-120260072D01*
X182422336Y-119128701D01*
X182811245Y-118739792D01*
X183942616Y-119871163D01*
G37*
G36*
X184508301Y-119305478D02*
G01*
X184119392Y-119694387D01*
X182988021Y-118563016D01*
X183376930Y-118174107D01*
X184508301Y-119305478D01*
G37*
G36*
X185073987Y-118739792D02*
G01*
X184685078Y-119128701D01*
X183553707Y-117997330D01*
X183942616Y-117608421D01*
X185073987Y-118739792D01*
G37*
G36*
X185639672Y-118174107D02*
G01*
X185250763Y-118563016D01*
X184119392Y-117431645D01*
X184508301Y-117042736D01*
X185639672Y-118174107D01*
G37*
G36*
X186205357Y-117608421D02*
G01*
X185816448Y-117997330D01*
X184685077Y-116865959D01*
X185073986Y-116477050D01*
X186205357Y-117608421D01*
G37*
G36*
X186771043Y-117042736D02*
G01*
X186382134Y-117431645D01*
X185250763Y-116300274D01*
X185639672Y-115911365D01*
X186771043Y-117042736D01*
G37*
%TD*%
D10*
%TO.C,MX55*%
X164465000Y-114776250D03*
D11*
X161925000Y-119856250D03*
D10*
X158115000Y-117316250D03*
D12*
X156845000Y-119856250D03*
X167005000Y-119856250D03*
%TD*%
D10*
%TO.C,MX54*%
X135890000Y-114776250D03*
D11*
X133350000Y-119856250D03*
D10*
X129540000Y-117316250D03*
D12*
X128270000Y-119856250D03*
X138430000Y-119856250D03*
%TD*%
D10*
%TO.C,MX53*%
X107315000Y-114776250D03*
D11*
X104775000Y-119856250D03*
D10*
X100965000Y-117316250D03*
D12*
X99695000Y-119856250D03*
X109855000Y-119856250D03*
%TD*%
D10*
%TO.C,MX40*%
X109696250Y-95726250D03*
D11*
X107156250Y-100806250D03*
D10*
X103346250Y-98266250D03*
D12*
X102076250Y-100806250D03*
X112236250Y-100806250D03*
%TD*%
D10*
%TO.C,MX27*%
X104933750Y-76676250D03*
D11*
X102393750Y-81756250D03*
D10*
X98583750Y-79216250D03*
D12*
X97313750Y-81756250D03*
X107473750Y-81756250D03*
%TD*%
D10*
%TO.C,MX14*%
X102552500Y-57626250D03*
D11*
X100012500Y-62706250D03*
D10*
X96202500Y-60166250D03*
D12*
X94932500Y-62706250D03*
X105092500Y-62706250D03*
%TD*%
D10*
%TO.C,MX58*%
X208687592Y-114313014D03*
D11*
X210007200Y-119837200D03*
D10*
X205455890Y-120340468D03*
D12*
X206115694Y-123102561D03*
X213898706Y-116571839D03*
D19*
X205376355Y-132841210D03*
X223617788Y-117534830D03*
D11*
X195580272Y-121166693D03*
X213821705Y-105860313D03*
%TD*%
D18*
%TO.C,X1*%
G36*
X189020288Y-117767703D02*
G01*
X189868816Y-118616231D01*
X188878866Y-119606181D01*
X188030338Y-118757653D01*
X189020288Y-117767703D01*
G37*
G36*
X187464653Y-119323338D02*
G01*
X188313181Y-120171866D01*
X187323231Y-121161816D01*
X186474703Y-120313288D01*
X187464653Y-119323338D01*
G37*
G36*
X188666734Y-120525419D02*
G01*
X189515262Y-121373947D01*
X188525312Y-122363897D01*
X187676784Y-121515369D01*
X188666734Y-120525419D01*
G37*
G36*
X190222369Y-118969784D02*
G01*
X191070897Y-119818312D01*
X190080947Y-120808262D01*
X189232419Y-119959734D01*
X190222369Y-118969784D01*
G37*
%TD*%
D20*
%TO.C,U2*%
X146474000Y-50266600D03*
X146474000Y-49316600D03*
X146474000Y-51216600D03*
X148674000Y-51216600D03*
X148674000Y-50266600D03*
X148674000Y-49316600D03*
%TD*%
D18*
%TO.C,RESET*%
G36*
X214069600Y-92953127D02*
G01*
X213426812Y-92187082D01*
X214729088Y-91094343D01*
X215371876Y-91860388D01*
X214069600Y-92953127D01*
G37*
G36*
X209243520Y-97002689D02*
G01*
X208600732Y-96236644D01*
X209903008Y-95143905D01*
X210545796Y-95909950D01*
X209243520Y-97002689D01*
G37*
G36*
X216512192Y-95864095D02*
G01*
X215869404Y-95098050D01*
X217171680Y-94005311D01*
X217814468Y-94771356D01*
X216512192Y-95864095D01*
G37*
G36*
X211686112Y-99913657D02*
G01*
X211043324Y-99147612D01*
X212345600Y-98054873D01*
X212988388Y-98820918D01*
X211686112Y-99913657D01*
G37*
%TD*%
%TO.C,R4*%
G36*
G01*
X207785993Y-100443074D02*
X208475436Y-99864562D01*
G75*
G02*
X208827642Y-99895376I160696J-191510D01*
G01*
X209165109Y-100297552D01*
G75*
G02*
X209134295Y-100649758I-191510J-160696D01*
G01*
X208444852Y-101228270D01*
G75*
G02*
X208092646Y-101197456I-160696J191510D01*
G01*
X207755179Y-100795280D01*
G75*
G02*
X207785993Y-100443074I191510J160696D01*
G01*
G37*
G36*
G01*
X206612905Y-99045042D02*
X207302348Y-98466530D01*
G75*
G02*
X207654554Y-98497344I160696J-191510D01*
G01*
X207992021Y-98899520D01*
G75*
G02*
X207961207Y-99251726I-191510J-160696D01*
G01*
X207271764Y-99830238D01*
G75*
G02*
X206919558Y-99799424I-160696J191510D01*
G01*
X206582091Y-99397248D01*
G75*
G02*
X206612905Y-99045042I191510J160696D01*
G01*
G37*
%TD*%
%TO.C,R2*%
G36*
G01*
X145980998Y-57550000D02*
X146881002Y-57550000D01*
G75*
G02*
X147131000Y-57799998I0J-249998D01*
G01*
X147131000Y-58325002D01*
G75*
G02*
X146881002Y-58575000I-249998J0D01*
G01*
X145980998Y-58575000D01*
G75*
G02*
X145731000Y-58325002I0J249998D01*
G01*
X145731000Y-57799998D01*
G75*
G02*
X145980998Y-57550000I249998J0D01*
G01*
G37*
G36*
G01*
X145980998Y-55725000D02*
X146881002Y-55725000D01*
G75*
G02*
X147131000Y-55974998I0J-249998D01*
G01*
X147131000Y-56500002D01*
G75*
G02*
X146881002Y-56750000I-249998J0D01*
G01*
X145980998Y-56750000D01*
G75*
G02*
X145731000Y-56500002I0J249998D01*
G01*
X145731000Y-55974998D01*
G75*
G02*
X145980998Y-55725000I249998J0D01*
G01*
G37*
%TD*%
%TO.C,R1*%
G36*
G01*
X148368598Y-57550000D02*
X149268602Y-57550000D01*
G75*
G02*
X149518600Y-57799998I0J-249998D01*
G01*
X149518600Y-58325002D01*
G75*
G02*
X149268602Y-58575000I-249998J0D01*
G01*
X148368598Y-58575000D01*
G75*
G02*
X148118600Y-58325002I0J249998D01*
G01*
X148118600Y-57799998D01*
G75*
G02*
X148368598Y-57550000I249998J0D01*
G01*
G37*
G36*
G01*
X148368598Y-55725000D02*
X149268602Y-55725000D01*
G75*
G02*
X149518600Y-55974998I0J-249998D01*
G01*
X149518600Y-56500002D01*
G75*
G02*
X149268602Y-56750000I-249998J0D01*
G01*
X148368598Y-56750000D01*
G75*
G02*
X148118600Y-56500002I0J249998D01*
G01*
X148118600Y-55974998D01*
G75*
G02*
X148368598Y-55725000I249998J0D01*
G01*
G37*
%TD*%
D10*
%TO.C,MX44*%
X193040000Y-95726250D03*
D11*
X190500000Y-100806250D03*
D10*
X186690000Y-98266250D03*
D12*
X185420000Y-100806250D03*
X195580000Y-100806250D03*
%TD*%
D10*
%TO.C,MX42*%
X154940000Y-95726250D03*
D11*
X152400000Y-100806250D03*
D10*
X148590000Y-98266250D03*
D12*
X147320000Y-100806250D03*
X157480000Y-100806250D03*
%TD*%
D10*
%TO.C,MX41*%
X135890000Y-95726250D03*
D11*
X133350000Y-100806250D03*
D10*
X129540000Y-98266250D03*
D12*
X128270000Y-100806250D03*
X138430000Y-100806250D03*
%TD*%
D10*
%TO.C,MX32*%
X202565000Y-76676250D03*
D11*
X200025000Y-81756250D03*
D10*
X196215000Y-79216250D03*
D12*
X194945000Y-81756250D03*
X205105000Y-81756250D03*
%TD*%
D10*
%TO.C,MX31*%
X183515000Y-76676250D03*
D11*
X180975000Y-81756250D03*
D10*
X177165000Y-79216250D03*
D12*
X175895000Y-81756250D03*
X186055000Y-81756250D03*
%TD*%
D10*
%TO.C,MX30*%
X164465000Y-76676250D03*
D11*
X161925000Y-81756250D03*
D10*
X158115000Y-79216250D03*
D12*
X156845000Y-81756250D03*
X167005000Y-81756250D03*
%TD*%
D10*
%TO.C,MX29*%
X145415000Y-76676250D03*
D11*
X142875000Y-81756250D03*
D10*
X139065000Y-79216250D03*
D12*
X137795000Y-81756250D03*
X147955000Y-81756250D03*
%TD*%
D10*
%TO.C,MX28*%
X126365000Y-76676250D03*
D11*
X123825000Y-81756250D03*
D10*
X120015000Y-79216250D03*
D12*
X118745000Y-81756250D03*
X128905000Y-81756250D03*
%TD*%
D10*
%TO.C,MX19*%
X197802500Y-57626250D03*
D11*
X195262500Y-62706250D03*
D10*
X191452500Y-60166250D03*
D12*
X190182500Y-62706250D03*
X200342500Y-62706250D03*
%TD*%
D10*
%TO.C,MX18*%
X178752500Y-57626250D03*
D11*
X176212500Y-62706250D03*
D10*
X172402500Y-60166250D03*
D12*
X171132500Y-62706250D03*
X181292500Y-62706250D03*
%TD*%
D10*
%TO.C,MX17*%
X159702500Y-57626250D03*
D11*
X157162500Y-62706250D03*
D10*
X153352500Y-60166250D03*
D12*
X152082500Y-62706250D03*
X162242500Y-62706250D03*
%TD*%
D10*
%TO.C,MX16*%
X140652500Y-57626250D03*
D11*
X138112500Y-62706250D03*
D10*
X134302500Y-60166250D03*
D12*
X133032500Y-62706250D03*
X143192500Y-62706250D03*
%TD*%
D10*
%TO.C,MX15*%
X121602500Y-57626250D03*
D11*
X119062500Y-62706250D03*
D10*
X115252500Y-60166250D03*
D12*
X113982500Y-62706250D03*
X124142500Y-62706250D03*
%TD*%
D10*
%TO.C,MX6*%
X197802500Y-38576250D03*
D11*
X195262500Y-43656250D03*
D10*
X191452500Y-41116250D03*
D12*
X190182500Y-43656250D03*
X200342500Y-43656250D03*
%TD*%
D10*
%TO.C,MX5*%
X178752500Y-38576250D03*
D11*
X176212500Y-43656250D03*
D10*
X172402500Y-41116250D03*
D12*
X171132500Y-43656250D03*
X181292500Y-43656250D03*
%TD*%
D10*
%TO.C,MX4*%
X159702500Y-38576250D03*
D11*
X157162500Y-43656250D03*
D10*
X153352500Y-41116250D03*
D12*
X152082500Y-43656250D03*
X162242500Y-43656250D03*
%TD*%
D10*
%TO.C,MX3*%
X140652500Y-38576250D03*
D11*
X138112500Y-43656250D03*
D10*
X134302500Y-41116250D03*
D12*
X133032500Y-43656250D03*
X143192500Y-43656250D03*
%TD*%
D10*
%TO.C,MX2*%
X121602500Y-38576250D03*
D11*
X119062500Y-43656250D03*
D10*
X115252500Y-41116250D03*
D12*
X113982500Y-43656250D03*
X124142500Y-43656250D03*
%TD*%
D10*
%TO.C,MX1*%
X102552500Y-38576250D03*
D11*
X100012500Y-43656250D03*
D10*
X96202500Y-41116250D03*
D12*
X94932500Y-43656250D03*
X105092500Y-43656250D03*
%TD*%
%TO.C,F1*%
G36*
G01*
X144160400Y-49491600D02*
X142910400Y-49491600D01*
G75*
G02*
X142660400Y-49241600I0J250000D01*
G01*
X142660400Y-48491600D01*
G75*
G02*
X142910400Y-48241600I250000J0D01*
G01*
X144160400Y-48241600D01*
G75*
G02*
X144410400Y-48491600I0J-250000D01*
G01*
X144410400Y-49241600D01*
G75*
G02*
X144160400Y-49491600I-250000J0D01*
G01*
G37*
G36*
G01*
X144160400Y-52291600D02*
X142910400Y-52291600D01*
G75*
G02*
X142660400Y-52041600I0J250000D01*
G01*
X142660400Y-51291600D01*
G75*
G02*
X142910400Y-51041600I250000J0D01*
G01*
X144160400Y-51041600D01*
G75*
G02*
X144410400Y-51291600I0J-250000D01*
G01*
X144410400Y-52041600D01*
G75*
G02*
X144160400Y-52291600I-250000J0D01*
G01*
G37*
%TD*%
D18*
%TO.C,D58*%
G36*
X201355326Y-125723081D02*
G01*
X200583980Y-124803828D01*
X201273420Y-124225319D01*
X202044766Y-125144572D01*
X201355326Y-125723081D01*
G37*
G36*
X198827380Y-127844281D02*
G01*
X198056034Y-126925028D01*
X198745474Y-126346519D01*
X199516820Y-127265772D01*
X198827380Y-127844281D01*
G37*
%TD*%
D21*
%TO.C,D55*%
X149479000Y-121844800D03*
X149479000Y-125144800D03*
%TD*%
%TO.C,D54*%
X145846800Y-121844800D03*
X145846800Y-125144800D03*
%TD*%
%TO.C,D53*%
X119075200Y-121819400D03*
X119075200Y-125119400D03*
%TD*%
%TO.C,D44*%
X182499000Y-102693200D03*
X182499000Y-105993200D03*
%TD*%
%TO.C,D43*%
X179451000Y-102693200D03*
X179451000Y-105993200D03*
%TD*%
%TO.C,D42*%
X144348200Y-102693200D03*
X144348200Y-105993200D03*
%TD*%
%TO.C,D41*%
X141351000Y-102693200D03*
X141351000Y-105993200D03*
%TD*%
%TO.C,D40*%
X118287800Y-102667800D03*
X118287800Y-105967800D03*
%TD*%
%TO.C,D32*%
X190449200Y-83440000D03*
X190449200Y-86740000D03*
%TD*%
%TO.C,D31*%
X172923200Y-83465400D03*
X172923200Y-86765400D03*
%TD*%
%TO.C,D30*%
X169976800Y-83465400D03*
X169976800Y-86765400D03*
%TD*%
%TO.C,D29*%
X134874000Y-83465400D03*
X134874000Y-86765400D03*
%TD*%
%TO.C,D28*%
X131902200Y-83465400D03*
X131902200Y-86765400D03*
%TD*%
%TO.C,D27*%
X113360200Y-83465400D03*
X113360200Y-86765400D03*
%TD*%
%TO.C,D19*%
X185724800Y-64339200D03*
X185724800Y-67639200D03*
%TD*%
%TO.C,D18*%
X168148000Y-64339200D03*
X168148000Y-67639200D03*
%TD*%
%TO.C,D17*%
X165252400Y-64339200D03*
X165252400Y-67639200D03*
%TD*%
%TO.C,D16*%
X130022600Y-64364600D03*
X130022600Y-67664600D03*
%TD*%
%TO.C,D15*%
X127152400Y-64390000D03*
X127152400Y-67690000D03*
%TD*%
%TO.C,D14*%
X109524800Y-64364600D03*
X109524800Y-67664600D03*
%TD*%
%TO.C,D6*%
X185724800Y-45441600D03*
X185724800Y-48741600D03*
%TD*%
%TO.C,D5*%
X168249600Y-45467000D03*
X168249600Y-48767000D03*
%TD*%
%TO.C,D4*%
X165201600Y-45492400D03*
X165201600Y-48792400D03*
%TD*%
%TO.C,D3*%
X130149600Y-45492400D03*
X130149600Y-48792400D03*
%TD*%
%TO.C,D2*%
X127076200Y-45492400D03*
X127076200Y-48792400D03*
%TD*%
%TO.C,D1*%
X109550200Y-45492400D03*
X109550200Y-48792400D03*
%TD*%
%TO.C,C9*%
G36*
G01*
X186316723Y-123107473D02*
X186988474Y-122435722D01*
G75*
G02*
X187342028Y-122435722I176777J-176777D01*
G01*
X187695581Y-122789275D01*
G75*
G02*
X187695581Y-123142829I-176777J-176777D01*
G01*
X187023830Y-123814580D01*
G75*
G02*
X186670276Y-123814580I-176777J176777D01*
G01*
X186316723Y-123461027D01*
G75*
G02*
X186316723Y-123107473I176777J176777D01*
G01*
G37*
G36*
G01*
X184973221Y-121763971D02*
X185644972Y-121092220D01*
G75*
G02*
X185998526Y-121092220I176777J-176777D01*
G01*
X186352079Y-121445773D01*
G75*
G02*
X186352079Y-121799327I-176777J-176777D01*
G01*
X185680328Y-122471078D01*
G75*
G02*
X185326774Y-122471078I-176777J176777D01*
G01*
X184973221Y-122117525D01*
G75*
G02*
X184973221Y-121763971I176777J176777D01*
G01*
G37*
%TD*%
%TO.C,C8*%
G36*
G01*
X191127278Y-117024127D02*
X190455527Y-117695878D01*
G75*
G02*
X190101973Y-117695878I-176777J176777D01*
G01*
X189748420Y-117342325D01*
G75*
G02*
X189748420Y-116988771I176777J176777D01*
G01*
X190420171Y-116317020D01*
G75*
G02*
X190773725Y-116317020I176777J-176777D01*
G01*
X191127278Y-116670573D01*
G75*
G02*
X191127278Y-117024127I-176777J-176777D01*
G01*
G37*
G36*
G01*
X192470780Y-118367629D02*
X191799029Y-119039380D01*
G75*
G02*
X191445475Y-119039380I-176777J176777D01*
G01*
X191091922Y-118685827D01*
G75*
G02*
X191091922Y-118332273I176777J176777D01*
G01*
X191763673Y-117660522D01*
G75*
G02*
X192117227Y-117660522I176777J-176777D01*
G01*
X192470780Y-118014075D01*
G75*
G02*
X192470780Y-118367629I-176777J-176777D01*
G01*
G37*
%TD*%
%TO.C,C7*%
G36*
G01*
X186836073Y-108374078D02*
X186164322Y-107702327D01*
G75*
G02*
X186164322Y-107348773I176777J176777D01*
G01*
X186517875Y-106995220D01*
G75*
G02*
X186871429Y-106995220I176777J-176777D01*
G01*
X187543180Y-107666971D01*
G75*
G02*
X187543180Y-108020525I-176777J-176777D01*
G01*
X187189627Y-108374078D01*
G75*
G02*
X186836073Y-108374078I-176777J176777D01*
G01*
G37*
G36*
G01*
X185492571Y-109717580D02*
X184820820Y-109045829D01*
G75*
G02*
X184820820Y-108692275I176777J176777D01*
G01*
X185174373Y-108338722D01*
G75*
G02*
X185527927Y-108338722I176777J-176777D01*
G01*
X186199678Y-109010473D01*
G75*
G02*
X186199678Y-109364027I-176777J-176777D01*
G01*
X185846125Y-109717580D01*
G75*
G02*
X185492571Y-109717580I-176777J176777D01*
G01*
G37*
%TD*%
%TO.C,C3*%
G36*
G01*
X184691122Y-124783873D02*
X185362873Y-124112122D01*
G75*
G02*
X185716427Y-124112122I176777J-176777D01*
G01*
X186069980Y-124465675D01*
G75*
G02*
X186069980Y-124819229I-176777J-176777D01*
G01*
X185398229Y-125490980D01*
G75*
G02*
X185044675Y-125490980I-176777J176777D01*
G01*
X184691122Y-125137427D01*
G75*
G02*
X184691122Y-124783873I176777J176777D01*
G01*
G37*
G36*
G01*
X183347620Y-123440371D02*
X184019371Y-122768620D01*
G75*
G02*
X184372925Y-122768620I176777J-176777D01*
G01*
X184726478Y-123122173D01*
G75*
G02*
X184726478Y-123475727I-176777J-176777D01*
G01*
X184054727Y-124147478D01*
G75*
G02*
X183701173Y-124147478I-176777J176777D01*
G01*
X183347620Y-123793925D01*
G75*
G02*
X183347620Y-123440371I176777J176777D01*
G01*
G37*
%TD*%
%TO.C,C2*%
G36*
G01*
X190061873Y-111244278D02*
X189390122Y-110572527D01*
G75*
G02*
X189390122Y-110218973I176777J176777D01*
G01*
X189743675Y-109865420D01*
G75*
G02*
X190097229Y-109865420I176777J-176777D01*
G01*
X190768980Y-110537171D01*
G75*
G02*
X190768980Y-110890725I-176777J-176777D01*
G01*
X190415427Y-111244278D01*
G75*
G02*
X190061873Y-111244278I-176777J176777D01*
G01*
G37*
G36*
G01*
X188718371Y-112587780D02*
X188046620Y-111916029D01*
G75*
G02*
X188046620Y-111562475I176777J176777D01*
G01*
X188400173Y-111208922D01*
G75*
G02*
X188753727Y-111208922I176777J-176777D01*
G01*
X189425478Y-111880673D01*
G75*
G02*
X189425478Y-112234227I-176777J-176777D01*
G01*
X189071925Y-112587780D01*
G75*
G02*
X188718371Y-112587780I-176777J176777D01*
G01*
G37*
%TD*%
%TO.C,C1*%
G36*
G01*
X171775176Y-110026473D02*
X172446927Y-110698224D01*
G75*
G02*
X172446927Y-111051778I-176777J-176777D01*
G01*
X172093374Y-111405331D01*
G75*
G02*
X171739820Y-111405331I-176777J176777D01*
G01*
X171068069Y-110733580D01*
G75*
G02*
X171068069Y-110380026I176777J176777D01*
G01*
X171421622Y-110026473D01*
G75*
G02*
X171775176Y-110026473I176777J-176777D01*
G01*
G37*
G36*
G01*
X173118678Y-108682971D02*
X173790429Y-109354722D01*
G75*
G02*
X173790429Y-109708276I-176777J-176777D01*
G01*
X173436876Y-110061829D01*
G75*
G02*
X173083322Y-110061829I-176777J176777D01*
G01*
X172411571Y-109390078D01*
G75*
G02*
X172411571Y-109036524I176777J176777D01*
G01*
X172765124Y-108682971D01*
G75*
G02*
X173118678Y-108682971I176777J-176777D01*
G01*
G37*
%TD*%
M02*
