M48
; DRILL file {KiCad (5.1.9)-1} date 07/10/21 17:10:15
; FORMAT={-:-/ absolute / metric / decimal}
; #@! TF.CreationDate,2021-07-10T17:10:15+02:00
; #@! TF.GenerationSoftware,Kicad,Pcbnew,(5.1.9)-1
; #@! TF.FileFunction,Plated,1,2,PTH
FMAT,2
METRIC
T1C0.400
T2C0.600
T3C1.470
%
G90
G05
T1
X122.58Y-48.768
X123.114Y-67.691
X127.584Y-86.766
X136.092Y-105.968
X138.938Y-48.793
X143.434Y-67.666
X145.186Y-39.878
X145.39Y-54.28
X147.598Y-66.116
X148.082Y-86.741
X148.184Y-64.465
X150.063Y-39.878
X151.333Y-67.691
X152.349Y-48.793
X155.524Y-86.741
X156.286Y-105.994
X156.896Y-127.051
X166.751Y-105.994
X174.473Y-110.769
X176.592Y-109.098
X176.784Y-122.174
X177.317Y-108.407
X177.495Y-122.885
X178.042Y-109.1
X178.206Y-123.596
X178.943Y-124.308
X179.68Y-124.993
X181.077Y-115.595
X182.55Y-124.943
X190.322Y-113.487
X193.074Y-112.615
T3
X96.203Y-41.116
X96.203Y-60.166
X98.584Y-79.216
X100.965Y-117.316
X102.552Y-38.576
X102.552Y-57.626
X103.346Y-98.266
X104.934Y-76.676
X107.315Y-114.776
X109.696Y-95.726
X115.252Y-41.116
X115.252Y-60.166
X120.015Y-79.216
X121.602Y-38.576
X121.602Y-57.626
X126.365Y-76.676
X129.54Y-98.266
X129.54Y-117.316
X134.302Y-41.116
X134.302Y-60.166
X135.89Y-95.726
X135.89Y-114.776
X139.065Y-79.216
X140.653Y-38.576
X140.653Y-57.626
X145.415Y-76.676
X148.59Y-98.266
X153.352Y-41.116
X153.352Y-60.166
X154.94Y-95.726
X158.115Y-79.216
X158.115Y-117.316
X159.702Y-38.576
X159.702Y-57.626
X164.465Y-76.676
X164.465Y-114.776
X167.64Y-98.266
X172.403Y-41.116
X172.403Y-60.166
X173.99Y-95.726
X177.165Y-79.216
X178.752Y-38.576
X178.752Y-57.626
X183.515Y-76.676
X186.69Y-98.266
X191.452Y-41.116
X191.452Y-60.166
X193.04Y-95.726
X196.215Y-79.216
X197.802Y-38.576
X197.802Y-57.626
X202.565Y-76.676
X205.456Y-120.34
X208.688Y-114.313
T2
G00X143.305Y-31.822
M15
G01X143.305Y-32.422
M16
G05
G00X143.305Y-35.752
M15
G01X143.305Y-36.852
M16
G05
G00X151.945Y-31.822
M15
G01X151.945Y-32.422
M16
G05
G00X151.945Y-35.752
M15
G01X151.945Y-36.852
M16
G05
T0
M30
